<svg xmlns="http://www.w3.org/2000/svg" viewBox="0 0 583.46 564.84"><title>Asset 1</title><g id="Layer_2" data-name="Layer 2"><g id="Layer_1-2" data-name="Layer 1"><path d="M292,432.38c-5.95,20.93-9.68,40.93-17.3,59.31-14.47,34.92-39,61.65-76.83,70.37-39.52,9.1-73-4.61-100.68-34.16-33.91-36.19-32.35-88.85-3.73-128.45,18.25-25.24,43.22-41.31,70.19-55.14,1.31-.68,2.56-1.49,3.84-2.24-.11-.79-.23-1.57-.35-2.36-4.34.57-8.7,1-13,1.74-32.46,5.29-64.49,3.69-94.47-10.34-46.56-21.8-68.84-61.68-56-116.3C10.9,183.61,28.32,160.17,56.9,146c25.88-12.87,52.74-10.94,79.77-2.67,26.6,8.13,48.54,23.31,67.93,42.73a18.29,18.29,0,0,0,8.79,5.42c-1.12-2.79-2.07-5.67-3.4-8.36-15.63-31.71-23.57-64.82-18.48-100.35,5-34.67,29.82-69.08,67.91-78.29C289.68-2.86,319-2.15,346.49,14c21.66,12.77,36.15,31.54,42.38,56,9.49,37.24,3,72.69-13.1,106.88-2.41,5.11-4.64,10.3-5.63,16.53,9.16-8.08,18-16.57,27.53-24.15,31.29-24.87,66.71-37.23,106.71-30.64,28,4.61,48.77,21.61,62.87,45.7,16.88,28.87,21.24,59.78,10,91.92-9.77,27.78-30.66,44.77-56.92,55.45-29.61,12.05-60.43,15-92,9.46-4-.69-8.07-.57-12.86-.88,16.75,11,33.35,20.2,47.94,31.9,26.43,21.19,44.37,48.36,47.91,82.85,3.35,32.67-10,59.29-33.58,81-25.2,23.2-55,32.92-88.92,26.85C367.09,559,349.49,547,334.34,531.21,311.8,507.71,300.8,479,295.7,447.45,294.92,442.69,293.38,438.06,292,432.38ZM431.27,326.67A161.57,161.57,0,0,0,489.35,314c33.51-14.33,51.21-45.39,45.66-81.18-6.63-42.77-47.83-69.76-90-60.31-33.77,7.57-60,26.28-83.46,50.54-6.74,7-7,12.08.06,18.35a27,27,0,0,1,5.93,7.87c3.24,6.49,7.64,7.62,14.64,5.93,20.14-4.87,40.4-9.38,60.81-12.88,4.65-.8,10.09,3,15.16,4.72-3,3.7-5.57,7.84-9.05,11-2.82,2.55-6.6,4.15-10.16,5.73-14.54,6.47-29,13.1-43.79,19-7.89,3.15-14.19,6.1-11.41,16.55.86,3.26,0,7.31-1,10.68-2.32,7.34,1.47,10,7.63,10.94C404,323,417.63,324.77,431.27,326.67ZM206.38,338.75c-11.56,6-23.62,11.4-34.77,18.27C147,372.19,127.13,392,117,419.81c-19.77,54.37,22.19,100,68.45,100,28.6,0,49.75-14.26,65.95-36.55,16.66-22.93,24.71-49.13,28.16-77.06,1.69-13.63,2.24-13.48-10.7-16.56A45.16,45.16,0,0,1,257.79,386c-5.4-2.93-8.35-1.11-12.06,3.26C232.5,404.79,219.1,420.26,205,435c-3.81,4-13.07,8.69-15.35,7-6.84-5.05-2.27-12.64,1.07-18.55,10.07-17.78,20.72-35.23,30.68-53.07,1.5-2.67,1.85-7.5.41-10C217.74,353.43,212.51,347.17,206.38,338.75Zm-5.85-19.38c-.53-9.81-1.38-17.57-1.2-25.31.12-5.07-1.67-7.31-6.26-9.22-18.54-7.74-37.12-15.5-55.18-24.27-5.39-2.62-13.68-9.94-12.83-12.73,2.57-8.44,11.73-6.68,18.66-5.35,18.57,3.56,37.11,7.47,55.47,12,7.06,1.74,12.4,2.89,16.6-5,3.2-6,8.25-10.95,11.82-16.77.61-1-1.7-4.34-3.28-6-6.18-6.53-12.23-13.28-19-19.14-25.92-22.38-54.78-37.93-90.33-36.45-32,1.33-58.51,23.19-66.07,57.78-6.87,31.5,2,57.14,31.41,77.22,26.2,17.9,55.88,20.9,86.39,18.74C178.18,324.06,189.52,321.22,200.53,319.37Zm198,201.9c9.2-2.48,18.89-3.85,27.51-7.64,42.05-18.47,57.16-66.58,34.25-106.74-16-28-39.78-47-68.38-60.69-15.32-7.34-15.29-7.39-24.65,6a31.85,31.85,0,0,1-3.77,5.06c-5.13,4.83-4.2,9.17-.71,14.9,10.77,17.69,21.28,35.57,30.81,53.94,2.29,4.43.38,11,.4,16.65-5.19-2.08-11.71-2.83-15.32-6.47-11.64-11.71-23-23.85-32.92-37-8.33-11.12-16-19-30.3-10-1.16.74-2.92.62-4.41.74-6.64.5-9.22,3.4-8.39,10.56,3.44,29.37,10.83,57.32,28.34,81.69C347.44,505.15,368.79,519.75,398.51,521.27ZM245.25,220c9.23-3.5,16.07-6.9,23.32-8.58,5.65-1.3,6.92-3.85,7.35-9.13,1.7-20.65,3.41-41.34,6.35-61.83.76-5.29,6-9.94,9.21-14.88,2.57,4.76,6.66,9.28,7.45,14.33,3.26,20.77,5.36,41.72,8.33,62.54.41,2.92,2.61,6.76,5.07,8a95.17,95.17,0,0,0,19.44,6.94c2.38.59,6.79-.51,7.92-2.31,20.47-32.63,30.66-67.76,24.19-106.52C358.44,75.86,332,50.56,302,48.05c-43.2-3.62-69.82,17.53-80.5,50.55-8.77,27.14-5.27,54.36,4.34,80.55C231.09,193.34,238.82,206.6,245.25,220Z"/></g></g></svg>